HIERARCHY
ROOT Hips
{
	OFFSET 0.00000 0.00000 0.00000
	CHANNELS 6 Xposition Yposition Zposition Zrotation Yrotation Xrotation 
	JOINT LHipJoint
	{
		OFFSET 0 0 0
		CHANNELS 3 Zrotation Yrotation Xrotation
		JOINT LeftUpLeg
		{
			OFFSET 1.44960 -1.75505 0.85172
			CHANNELS 3 Zrotation Yrotation Xrotation
			JOINT LeftLeg
			{
				OFFSET 2.40573 -6.60971 0.00000
				CHANNELS 3 Zrotation Yrotation Xrotation
				JOINT LeftFoot
				{
					OFFSET 2.58773 -7.10974 0.00000
					CHANNELS 3 Zrotation Yrotation Xrotation
					JOINT LeftToeBase
					{
						OFFSET 0.18252 -0.50147 1.77316
						CHANNELS 3 Zrotation Yrotation Xrotation
						End Site
						{
							OFFSET 0.00000 -0.00000 0.92990
						}
					}
				}
			}
		}
	}
	JOINT RHipJoint
	{
		OFFSET 0 0 0
		CHANNELS 3 Zrotation Yrotation Xrotation
		JOINT RightUpLeg
		{
			OFFSET -1.40744 -1.75505 0.85172
			CHANNELS 3 Zrotation Yrotation Xrotation
			JOINT RightLeg
			{
				OFFSET -2.43714 -6.69600 0.00000
				CHANNELS 3 Zrotation Yrotation Xrotation
				JOINT RightFoot
				{
					OFFSET -2.51650 -6.91404 0.00000
					CHANNELS 3 Zrotation Yrotation Xrotation
					JOINT RightToeBase
					{
						OFFSET -0.25383 -0.69740 1.96384
						CHANNELS 3 Zrotation Yrotation Xrotation
						End Site
						{
							OFFSET -0.00000 -0.00000 1.04244
						}
					}
				}
			}
		}
	}
	JOINT LowerBack
	{
		OFFSET 0 0 0
		CHANNELS 3 Zrotation Yrotation Xrotation
		JOINT Spine
		{
			OFFSET 0.00579 2.14458 -0.24367
			CHANNELS 3 Zrotation Yrotation Xrotation
			JOINT Spine1
			{
				OFFSET 0.05899 2.16316 -0.04515
				CHANNELS 3 Zrotation Yrotation Xrotation
				JOINT Neck
				{
					OFFSET 0 0 0
					CHANNELS 3 Zrotation Yrotation Xrotation
					JOINT Neck1
					{
						OFFSET -0.01650 1.59577 0.24841
						CHANNELS 3 Zrotation Yrotation Xrotation
						JOINT Head
						{
							OFFSET -0.01016 1.63072 -0.17782
							CHANNELS 3 Zrotation Yrotation Xrotation
							End Site
							{
								OFFSET -0.00250 1.64111 -0.08717
							}
						}
					}
				}
				JOINT LeftShoulder
				{
					OFFSET 0 0 0
					CHANNELS 3 Zrotation Yrotation Xrotation
					JOINT LeftArm
					{
						OFFSET 3.17745 0.95174 -0.45729
						CHANNELS 3 Zrotation Yrotation Xrotation
						JOINT LeftForeArm
						{
							OFFSET 4.93485 -0.00000 0.00000
							CHANNELS 3 Zrotation Yrotation Xrotation
							JOINT LeftHand
							{
								OFFSET 3.41719 -0.00000 -0.00000
								CHANNELS 3 Zrotation Yrotation Xrotation
								JOINT LeftFingerBase
								{
									OFFSET 0 0 0
									CHANNELS 3 Zrotation Yrotation Xrotation
									JOINT LeftHandIndex1
									{
										OFFSET 0.62410 -0.00000 -0.00000
										CHANNELS 3 Zrotation Yrotation Xrotation
										End Site
										{
											OFFSET 0.50317 -0.00000 -0.00000
										}
									}
								}
								JOINT LThumb
								{
									OFFSET 0 0 0
									CHANNELS 3 Zrotation Yrotation Xrotation
									End Site
									{
										OFFSET 0.51085 -0.00000 0.51085
									}
								}
							}
						}
					}
				}
				JOINT RightShoulder
				{
					OFFSET 0 0 0
					CHANNELS 3 Zrotation Yrotation Xrotation
					JOINT RightArm
					{
						OFFSET -2.87924 1.13038 -0.75204
						CHANNELS 3 Zrotation Yrotation Xrotation
						JOINT RightForeArm
						{
							OFFSET -5.22034 -0.00000 0.00000
							CHANNELS 3 Zrotation Yrotation Xrotation
							JOINT RightHand
							{
								OFFSET -3.41809 -0.00000 -0.00000
								CHANNELS 3 Zrotation Yrotation Xrotation
								JOINT RightFingerBase
								{
									OFFSET 0 0 0
									CHANNELS 3 Zrotation Yrotation Xrotation
									JOINT RightHandIndex1
									{
										OFFSET -0.77534 -0.00000 -0.00000
										CHANNELS 3 Zrotation Yrotation Xrotation
										End Site
										{
											OFFSET -0.62510 -0.00000 -0.00000
										}
									}
								}
								JOINT RThumb
								{
									OFFSET 0 0 0
									CHANNELS 3 Zrotation Yrotation Xrotation
									End Site
									{
										OFFSET -0.63464 -0.00000 0.63464
									}
								}
							}
						}
					}
				}
			}
		}
	}
}
MOTION
Frames: 14
Frame Time: .0083333
-2.1760 17.4326 10.3546 -3.6168 1.0436 8.4825 0.0000 0.0000 0.0000 -5.2756 -6.9992 -5.7126 0.6427 5.1288 14.2762 0.4380 4.4685 -14.9449 0.2609 -3.2863 -9.0769 0.0000 0.0000 0.0000 28.4477 0.8530 -7.4527 -0.6014 -4.9641 13.8063 -0.3435 -10.4907 -19.3666 -0.8953 -6.0308 16.8737 5.8853 -4.1034 2.3164 4.0319 -5.3851 2.0058 0.9706 -2.6524 0.6244 -4.6161 -4.6021 -12.8961 -5.9876 -4.1452 18.8279 -1.6639 -2.8874 7.9510 -0.0000 0.0000 0.0000 -85.4135 9.8082 36.6362 28.0344 -39.1479 -10.1454 -0.0000 0.0000 -0.8352 -0.5649 44.7801 -0.3979 -7.1250 0.0000 -0.0000 -53.5334 67.3506 -32.3033 -0.0000 0.0000 0.0000 83.0651 -15.3585 -6.0892 -7.3900 12.5593 -0.8143 0.0000 0.0000 1.3621 -13.4073 10.7487 -2.5455 7.1250 -0.0000 -0.0000 9.6355 -19.0204 6.0550
-2.1737 17.4367 10.3508 -3.5244 0.8836 8.5816 0.0000 0.0000 0.0000 -5.3890 -7.0087 -5.7488 0.6408 5.1211 14.2543 0.4348 4.4630 -14.8982 0.1907 -2.8124 -7.7568 0.0000 0.0000 0.0000 28.3407 0.6095 -7.6919 -0.6010 -4.9626 13.8019 -0.3390 -10.3341 -19.1458 -0.9156 -6.0968 17.0655 5.7912 -4.1901 2.3154 4.0255 -5.5004 1.9762 1.0197 -2.7120 0.5993 -4.7143 -4.6257 -13.0005 -5.8397 -4.1726 18.9735 -1.6091 -2.8982 8.0241 -0.0000 0.0000 0.0000 -85.4406 9.8149 36.4880 27.9131 -39.0361 -10.0689 -0.0000 0.0000 -0.9254 -0.4780 44.9652 -0.3378 -7.1250 0.0000 -0.0000 -53.8149 67.4881 -32.6656 -0.0000 0.0000 0.0000 82.8684 -15.5907 -5.4941 -7.5017 12.7419 -0.8388 0.0000 0.0000 0.9481 -13.3392 11.1192 -2.6182 7.1250 -0.0000 -0.0000 9.6734 -18.6498 6.1603
-2.1885 17.4345 10.3582 -3.5840 0.2996 8.5280 0.0000 0.0000 0.0000 -5.3453 -6.8026 -5.5196 0.6364 5.1039 14.2052 0.4154 4.8245 -14.9083 0.2054 -2.9180 -8.0506 0.0000 0.0000 0.0000 28.3932 1.3828 -7.2992 -0.6009 -4.9620 13.8003 -0.3390 -10.4093 -19.2277 -0.8854 -5.9982 16.7792 5.4812 -4.1028 2.3461 4.1297 -5.4012 2.1556 1.2864 -2.6623 0.8077 -4.8453 -4.6680 -13.0722 -5.6422 -4.2333 19.0722 -1.5339 -2.9202 8.0775 0.0000 -0.0000 0.0000 -85.6131 9.5715 36.3006 27.8228 -38.9526 -10.0121 -0.0000 0.0000 -0.6151 -0.6675 45.1658 -0.4734 -7.1250 0.0000 -0.0000 -54.3697 67.5466 -33.1452 0.0000 -0.0000 0.0000 82.6351 -15.5125 -5.2358 -7.5595 12.8363 -0.8516 0.0000 0.0000 0.8832 -13.4653 10.7649 -2.5607 7.1250 -0.0000 -0.0000 9.5942 -19.0008 6.0326
-2.1733 17.4363 10.3532 -3.5919 0.3364 8.6036 0.0000 0.0000 0.0000 -5.3790 -6.8866 -5.6032 0.6378 5.1097 14.2216 0.4172 4.8679 -14.9656 0.2108 -2.9559 -8.1560 0.0000 0.0000 0.0000 28.3627 0.6435 -7.6281 -0.5962 -4.9432 13.7467 -0.3640 -9.9257 -18.9866 -0.8795 -5.9786 16.7223 5.6650 -4.1610 2.3947 4.1375 -5.4685 2.1234 1.2014 -2.6950 0.7306 -4.9426 -4.6909 -13.0863 -5.5107 -4.2671 19.1282 -1.4802 -2.9317 8.1043 -0.0000 0.0000 0.0000 -85.6565 9.5430 36.2580 27.7084 -38.8464 -9.9402 -0.0000 0.0000 -0.3269 -0.7158 44.8911 -0.5052 -7.1250 0.0000 -0.0000 -53.8779 67.3694 -32.5795 -0.0000 0.0000 0.0000 82.5483 -15.6947 -5.2593 -7.5993 12.9013 -0.8604 0.0000 0.0000 1.0417 -13.2835 11.0290 -2.5860 7.1250 -0.0000 -0.0000 9.7147 -18.7441 6.1668
-2.1748 17.4366 10.3607 -3.5848 -0.0128 8.6219 0.0000 0.0000 0.0000 -5.4170 -6.7864 -5.4612 0.6350 5.0984 14.1894 0.4139 4.8923 -14.9405 0.2351 -3.1204 -8.6143 0.0000 0.0000 0.0000 28.3111 0.9016 -7.4973 -0.5937 -4.9331 13.7179 -0.3662 -9.8399 -18.9202 -0.8470 -5.8701 16.4080 5.6032 -4.0952 2.2921 4.1218 -5.3993 2.2333 1.2041 -2.6571 0.9068 -5.0470 -4.7102 -13.2345 -5.3519 -4.2878 19.2198 -1.4198 -2.9370 8.1681 -0.0000 0.0000 0.0000 -85.6446 9.4313 36.2829 27.6833 -38.8231 -9.9245 -0.0000 0.0000 -0.5279 -0.5068 44.9938 -0.3584 -7.1250 0.0000 -0.0000 -53.8954 67.4960 -32.7343 -0.0000 0.0000 0.0000 82.4054 -15.5614 -5.1068 -7.4752 12.6987 -0.8330 0.0000 0.0000 1.0278 -13.3522 10.8467 -2.5574 7.1250 -0.0000 -0.0000 9.6715 -18.9245 6.0992
-2.1735 17.4346 10.3549 -3.7929 -0.2421 8.6619 0.0000 0.0000 0.0000 -5.1859 -6.7397 -5.4780 0.6366 5.1047 14.2075 0.4106 4.9708 -14.9556 0.1907 -2.8121 -7.7560 0.0000 0.0000 0.0000 28.5257 0.9483 -7.5775 -0.5918 -4.9252 13.6953 -0.3391 -9.8444 -18.6181 -0.7721 -5.6107 15.6590 5.7737 -4.1878 2.3620 4.1568 -5.5163 2.2709 1.1540 -2.7134 0.8928 -5.0380 -4.5928 -13.3372 -5.2824 -4.1309 19.3203 -1.3864 -2.8594 8.2221 0.0000 -0.0000 0.0000 -85.6383 9.6161 35.9688 27.7303 -38.8668 -9.9540 -0.0000 0.0000 -0.4262 -0.9163 45.0271 -0.6483 -7.1250 0.0000 -0.0000 -54.3147 67.3870 -32.9242 0.0000 -0.0000 0.0000 82.3234 -15.5548 -4.8998 -7.5605 12.8380 -0.8518 0.0000 0.0000 1.3639 -12.9014 10.5384 -2.3989 7.1250 -0.0000 -0.0000 9.9976 -19.2601 6.2353
-2.1583 17.4421 10.3500 -3.8117 -0.2650 8.8212 0.0000 0.0000 0.0000 -5.2227 -6.8078 -5.5526 0.6312 5.0835 14.1469 0.4249 4.9655 -15.1421 0.2369 -3.1323 -8.6472 0.0000 0.0000 0.0000 28.4507 0.5544 -7.9097 -0.5932 -4.9308 13.7112 -0.3820 -9.2270 -18.4617 -0.8430 -5.8565 16.3686 5.9702 -4.2319 2.3109 4.1438 -5.5736 2.2361 1.0331 -2.7398 0.8650 -5.0450 -4.5973 -13.4164 -5.2589 -4.1276 19.4867 -1.3835 -2.8612 8.2933 -0.0000 0.0000 0.0000 -85.5811 9.4350 36.1479 27.4982 -38.6502 -9.8087 -0.0000 0.0000 -0.5336 -0.4642 44.6657 -0.3263 -7.1250 0.0000 -0.0000 -53.2261 67.3136 -32.0354 -0.0000 0.0000 0.0000 82.2456 -15.5084 -5.1697 -7.4343 12.6318 -0.8240 0.0000 0.0000 1.7657 -12.8427 10.8994 -2.4683 7.1250 -0.0000 -0.0000 10.0274 -18.8995 6.3363
-2.1450 17.4450 10.3464 -3.6637 -0.4480 8.9286 0.0000 0.0000 0.0000 -5.4556 -6.8159 -5.6419 0.6351 5.0988 14.1905 0.3991 5.2629 -15.0313 0.2185 -3.0095 -8.3052 0.0000 0.0000 0.0000 28.2298 0.3186 -8.1250 -0.5924 -4.9278 13.7026 -0.3920 -8.9228 -18.2682 -0.8107 -5.7459 16.0488 5.9311 -4.2756 2.3994 4.1099 -5.6183 2.1589 1.0317 -2.7658 0.7346 -5.1436 -4.5640 -13.5221 -5.2572 -4.0412 19.7492 -1.3671 -2.8360 8.4050 -0.0000 0.0000 0.0000 -85.6831 9.4450 35.9619 27.4275 -38.5838 -9.7646 -0.0000 0.0000 -0.4307 -0.3309 44.8502 -0.2334 -7.1250 0.0000 -0.0000 -53.4642 67.4659 -32.3807 -0.0000 0.0000 0.0000 82.1812 -15.6708 -4.7689 -7.6307 12.9525 -0.8675 0.0000 0.0000 1.6302 -12.8920 10.2858 -2.3403 7.1250 -0.0000 -0.0000 10.0125 -19.5152 6.1871
-2.1477 17.4450 10.3480 -3.6623 -0.7017 8.9668 0.0000 0.0000 0.0000 -5.4731 -6.7224 -5.6266 0.6318 5.0861 14.1542 0.3856 5.4828 -15.0273 0.1826 -2.7522 -7.5895 0.0000 0.0000 0.0000 28.2033 0.4699 -8.1361 -0.5956 -4.9408 13.7398 -0.3948 -8.7929 -18.1707 -0.7806 -5.6407 15.7454 5.7938 -4.2379 2.2981 4.1259 -5.5851 2.2200 1.1104 -2.7482 0.8693 -5.1675 -4.5701 -13.5234 -5.2707 -4.0347 19.9159 -1.3713 -2.8407 8.4624 0.0000 0.0000 0.0000 -85.6205 9.2085 36.0467 27.1744 -38.3450 -9.6071 -0.0000 0.0000 -0.6691 0.3975 44.5671 0.2790 -7.1250 0.0000 -0.0000 -52.2797 67.5239 -31.5725 0.0000 0.0000 0.0000 82.0976 -15.5122 -5.2344 -7.5125 12.7596 -0.8412 0.0000 0.0000 2.1695 -12.8596 10.8683 -2.4647 7.1250 -0.0000 -0.0000 10.0165 -18.9299 6.3223
-2.1546 17.4376 10.3412 -3.9002 -1.0782 8.9632 0.0000 0.0000 0.0000 -5.1943 -6.6798 -5.6153 0.6383 5.1117 14.2273 0.3646 5.8420 -15.0429 0.1650 -2.6172 -7.2149 0.0000 0.0000 0.0000 28.4747 1.1451 -7.8860 -0.5961 -4.9426 13.7451 -0.3883 -9.0691 -18.3726 -0.9073 -6.0699 16.9873 5.7685 -4.2205 2.4224 4.2460 -5.5556 2.2607 1.2546 -2.7353 0.8573 -5.2524 -4.5146 -13.6125 -5.3194 -3.9117 20.1547 -1.3687 -2.8021 8.5625 0.0000 0.0000 0.0000 -85.7271 9.2045 35.7911 27.1363 -38.3088 -9.5835 -0.0000 0.0000 -0.4825 0.7838 44.4153 0.5485 -7.1250 0.0000 -0.0000 -51.6464 67.5520 -31.1407 0.0000 0.0000 0.0000 81.8332 -15.2888 -5.0677 -7.3687 12.5244 -0.8097 0.0000 0.0000 2.2767 -12.7224 11.0265 -2.4726 7.1250 -0.0000 -0.0000 10.1079 -18.7781 6.4164
-2.1516 17.4415 10.3358 -3.9934 -1.1978 9.0268 0.0000 0.0000 0.0000 -5.1084 -6.6169 -5.6627 0.6392 5.1150 14.2368 0.3594 5.7760 -14.9160 0.1667 -2.6302 -7.2509 0.0000 0.0000 0.0000 28.5357 1.2342 -7.9718 -0.5979 -4.9501 13.7664 -0.3757 -9.0274 -18.1857 -0.8134 -5.7553 16.0760 5.8415 -4.2178 2.4501 4.2930 -5.5511 2.2961 1.2637 -2.7318 0.8768 -5.3108 -4.5389 -13.8528 -5.3823 -3.8845 20.4814 -1.3925 -2.8118 8.7193 0.0000 -0.0000 0.0000 -85.7758 9.1477 35.6556 27.2100 -38.3787 -9.6292 -0.0000 0.0000 -0.2755 -0.0590 45.0538 -0.0418 -7.1250 0.0000 -0.0000 -53.6234 67.6728 -32.7291 0.0000 -0.0000 0.0000 81.8129 -15.2635 -4.9047 -7.4272 12.6201 -0.8224 0.0000 0.0000 2.1581 -12.5419 10.7649 -2.3794 7.1250 -0.0000 -0.0000 10.2427 -19.0511 6.4417
-2.1459 17.4366 10.3288 -4.0865 -1.3445 9.0717 0.0000 0.0000 0.0000 -5.0199 -6.6416 -5.6991 0.6416 5.1245 14.2641 0.3705 5.8642 -15.1420 0.1585 -2.5649 -7.0696 0.0000 0.0000 0.0000 28.6258 1.2128 -8.0693 -0.5996 -4.9570 13.7860 -0.3698 -9.0291 -18.1192 -0.7963 -5.6958 15.9043 5.9275 -4.2721 2.4989 4.3224 -5.6172 2.2905 1.2531 -2.7648 0.8377 -5.3653 -4.4916 -13.8984 -5.4650 -3.7726 20.7690 -1.4075 -2.7813 8.8275 -0.0000 0.0000 0.0000 -85.8369 9.1441 35.4156 27.1027 -38.2769 -9.5626 -0.0000 0.0000 -0.0863 -0.2460 45.1354 -0.1743 -7.1250 0.0000 -0.0000 -53.9458 67.6619 -32.9574 -0.0000 0.0000 0.0000 81.6444 -15.1018 -4.6770 -7.3328 12.4656 -0.8019 0.0000 0.0000 2.3684 -12.6970 11.0214 -2.4664 7.1250 -0.0000 -0.0000 10.1259 -18.7846 6.4268
-2.1423 17.4405 10.3293 -4.0007 -1.5668 9.1250 0.0000 0.0000 0.0000 -5.1486 -6.7441 -5.6509 0.6406 5.1205 14.2526 0.3616 6.1309 -15.2525 0.1950 -2.8440 -7.8449 0.0000 0.0000 0.0000 28.4849 1.4276 -8.0532 -0.5990 -4.9546 13.7791 -0.3788 -8.9074 -18.0995 -0.8494 -5.8782 16.4315 5.8029 -4.2317 2.4475 4.3492 -5.5717 2.2954 1.3425 -2.7433 0.8864 -5.5847 -4.5317 -13.9485 -5.5270 -3.7442 21.0966 -1.4001 -2.8020 8.9564 -0.0000 -0.0000 0.0000 -85.9590 9.0089 35.4531 26.8538 -38.0394 -9.4089 -0.0000 0.0000 -0.0683 0.3423 44.7407 0.2410 -7.1250 0.0000 -0.0000 -52.6626 67.6119 -31.9501 -0.0000 -0.0000 0.0000 81.5013 -15.0141 -4.4758 -7.2353 12.3058 -0.7810 0.0000 0.0000 2.0466 -13.0003 11.1068 -2.5466 7.1250 -0.0000 -0.0000 9.9110 -18.6817 6.3091
-2.1407 17.4408 10.3231 -3.9212 -1.6507 9.1438 0.0000 0.0000 0.0000 -5.2344 -6.7130 -5.6509 0.6342 5.0952 14.1803 0.3615 6.1254 -15.2464 0.2139 -2.9775 -8.2161 0.0000 0.0000 0.0000 28.4027 1.5925 -8.0717 -0.6047 -4.9776 13.8447 -0.3698 -9.0673 -18.1573 -0.8674 -5.9384 16.6058 5.6844 -4.2297 2.4848 4.3290 -5.5675 2.2933 1.3893 -2.7431 0.8721 -5.5867 -4.5622 -13.9781 -5.6539 -3.7399 21.4353 -1.4525 -2.8242 9.0776 -0.0000 0.0000 0.0000 -85.8943 8.9941 35.4530 26.9403 -38.1222 -9.4623 -0.0000 -0.0000 0.0341 0.0203 45.1337 0.0144 -7.1250 0.0000 -0.0000 -53.7116 67.7452 -32.8753 -0.0000 0.0000 0.0000 81.5152 -14.8395 -4.6447 -7.0811 12.0526 -0.7485 0.0000 0.0000 2.3594 -13.4568 11.5239 -2.7368 7.1250 -0.0000 -0.0000 9.5814 -18.2339 6.1895
